<svg width="162" height="49" viewBox="0 0 162 49" fill="none" xmlns="http://www.w3.org/2000/svg">
<path d="M1.24966 14.2688C1.64915 12.3588 2.32298 10.5165 3.25026 8.79893C4.18003 7.08165 5.40078 5.5381 6.85839 4.23679C8.40659 2.88043 10.1983 1.82918 12.1386 1.13874C14.3897 0.348688 16.7636 -0.0359635 19.1495 0.00264183C21.3752 -0.0329802 23.5903 0.315734 25.6969 1.03337C27.5053 1.66688 29.1645 2.66343 30.5723 3.96156C31.9059 5.20437 32.9442 6.72907 33.6113 8.42411C34.3122 10.2314 34.6626 12.1552 34.6439 14.0931C34.6735 16.8558 34.0441 19.5859 32.8076 22.0578C31.5846 24.4767 30.0219 26.709 28.1669 28.6872C26.296 30.6885 24.2393 32.5082 22.0243 34.1219C19.7948 35.7422 17.6808 37.175 15.6822 38.4205L10.5369 41.6181L36.3746 41.6181L36.3746 47.287L5.56241e-06 47.287L5.76721e-06 42.6019L10.1497 35.8729C13.486 33.6475 16.3354 31.5919 18.6978 29.7062C20.7698 28.0833 22.701 26.2888 24.4708 24.3418C25.8059 22.8839 26.9099 21.2308 27.7445 19.4399C28.42 17.9406 28.7737 16.3168 28.7829 14.6729C28.8213 13.2352 28.5596 11.8051 28.0143 10.4738C27.5453 9.37722 26.8092 8.41495 25.8729 7.67448C24.9244 6.94501 23.8331 6.42229 22.6696 6.14011C21.3917 5.82242 20.0792 5.66508 18.7623 5.67165C16.9916 5.63066 15.2311 5.94944 13.5877 6.60865C12.22 7.17861 10.9735 8.00346 9.91504 9.03906C8.93808 9.99963 8.14305 11.1285 7.56829 12.3713C7.03091 13.5257 6.65958 14.75 6.46532 16.0081L1.24966 14.2688Z" fill="black"/>
<path d="M40.9229 24.1099C40.8941 20.8592 41.3013 17.6192 42.1337 14.4765C42.8533 11.7247 44.0965 9.13693 45.7955 6.8546C47.4357 4.70296 49.5684 2.97534 52.0147 1.81661C54.7932 0.553108 57.822 -0.0660105 60.874 0.00556911C63.9127 -0.0630302 66.9316 0.509877 69.7333 1.68684C72.1946 2.74731 74.3554 4.39892 76.0234 6.49475C77.7575 8.76055 79.0151 11.3531 79.7207 14.1166C80.5601 17.3725 80.9672 20.7244 80.9314 24.0863C80.9577 27.337 80.5606 30.5774 79.7502 33.7258C79.0507 36.4776 77.8165 39.0652 76.1179 41.3416C74.4794 43.4949 72.3463 45.2229 69.8987 46.3796C67.1203 47.6435 64.0915 48.2627 61.0394 48.1907C58.0705 48.2475 55.1276 47.6281 52.4341 46.3796C49.9677 45.208 47.8052 43.484 46.1145 41.3416C44.3469 39.0749 43.0334 36.4891 42.2459 33.7258C41.3423 30.6011 40.8967 27.3622 40.9229 24.1099ZM46.8291 24.1099C46.8291 29.844 48.0832 34.3432 50.5914 37.6074C53.0995 40.8717 56.5743 42.5058 61.0158 42.5098C65.851 42.5098 69.3947 40.8756 71.6469 37.6074C73.8991 34.3392 75.0193 29.8401 75.0075 24.1099C75.0075 18.3837 73.8657 13.8845 71.5819 10.6124C69.2982 7.3403 65.7348 5.70625 60.8917 5.71018C58.7365 5.65625 56.5974 6.09402 54.6371 6.99027C52.8945 7.83763 51.392 9.1072 50.2665 10.6832C49.0395 12.4346 48.1612 14.4053 47.6796 16.4881C47.093 18.9855 46.8114 21.5448 46.8409 24.1099L46.8291 24.1099Z" fill="black"/>
<path d="M86.7241 14.2691C87.1236 12.3592 87.7975 10.5169 88.7247 8.79937C89.6526 7.08086 90.8736 5.53702 92.3329 4.23728C93.8802 2.87978 95.6721 1.82841 97.6131 1.13927C99.8734 0.345307 102.258 -0.0394036 104.653 0.00318506C106.879 -0.0314972 109.094 0.317188 111.201 1.0339C113.009 1.66741 114.668 2.66394 116.076 3.96206C117.41 5.2035 118.447 6.72869 119.109 8.42456C119.815 10.2307 120.167 12.155 120.148 14.0935C120.177 16.8562 119.548 19.5862 118.311 22.0581C117.086 24.4758 115.524 26.7078 113.671 28.6874C111.8 30.6886 109.743 32.5084 107.528 34.122C105.299 35.7423 103.183 37.1751 101.18 38.4206L96.0407 41.6181L121.855 41.6181L121.855 47.287L85.4804 47.287L85.4804 42.602L95.63 35.8731C98.9663 33.6477 101.816 31.5921 104.178 29.7064C106.25 28.0835 108.181 26.2891 109.951 24.342C111.286 22.8842 112.39 21.2311 113.225 19.4402C113.896 17.9396 114.247 16.3165 114.257 14.6733C114.299 13.2353 114.037 11.8047 113.489 10.4743C113.024 9.37678 112.29 8.41398 111.353 7.67493C110.403 6.94768 109.313 6.42521 108.15 6.14058C106.872 5.8229 105.56 5.66556 104.243 5.67212C102.472 5.62999 100.711 5.94881 99.068 6.60912C97.6995 7.17754 96.4528 8.00256 95.3954 9.0395C94.4188 10.0004 93.6238 11.1292 93.0486 12.3717C92.513 13.5263 92.1437 14.7506 91.9515 16.0084L86.7241 14.2691Z" fill="black"/>
<path d="M126.758 12.0149C127.358 10.3001 128.203 8.68455 129.267 7.22043C130.341 5.74808 131.647 4.46676 133.134 3.42853C134.751 2.3034 136.537 1.45291 138.423 0.91039C140.625 0.276748 142.906 -0.0291862 145.194 0.00218903C147.305 -0.0174209 149.408 0.264501 151.441 0.839626C153.215 1.33272 154.892 2.13055 156.4 3.19853C157.752 4.1619 158.861 5.43712 159.634 6.91966C160.415 8.43035 160.814 10.1143 160.795 11.8203C160.868 14.3127 160.141 16.7614 158.723 18.7968C157.219 20.7998 155.086 22.2208 152.678 22.8246C153.838 22.9191 154.975 23.2018 156.046 23.662C157.159 24.1409 158.161 24.8499 158.99 25.7437C159.895 26.7381 160.601 27.9018 161.068 29.17C161.631 30.7269 161.901 32.3772 161.864 34.0353C161.903 36.134 161.462 38.2133 160.575 40.1095C159.74 41.8477 158.517 43.3641 157.004 44.5383C155.388 45.7734 153.561 46.695 151.616 47.2569C149.448 47.8963 147.201 48.2122 144.944 48.1946C142.538 48.2233 140.139 47.9077 137.82 47.2569C135.818 46.6935 133.912 45.8224 132.17 44.6739C130.574 43.6113 129.176 42.2695 128.042 40.711C126.912 39.16 126.05 37.425 125.493 35.5803L130.846 33.2214C131.428 34.4433 132.114 35.6115 132.896 36.7126C133.704 37.845 134.684 38.8402 135.799 39.6613C137.028 40.5541 138.388 41.2446 139.829 41.7076C141.606 42.2558 143.458 42.5166 145.316 42.4802C148.618 42.4802 151.228 41.7528 153.148 40.2981C155.065 38.8474 156.023 36.7598 156.023 34.0884C156.091 32.8322 155.797 31.583 155.179 30.493C154.56 29.403 153.643 28.5193 152.539 27.9493C151.329 27.3071 150.022 26.8746 148.672 26.6696C147.087 26.4183 145.485 26.296 143.881 26.304L138.725 26.304L138.725 20.7311L142.819 20.7311C146.651 20.7311 149.636 19.9919 151.772 18.5137C153.909 17.0354 154.977 15.1896 154.977 12.9762C154.977 10.5583 154.074 8.74588 152.266 7.5389C150.458 6.33193 148.014 5.72643 144.932 5.7225C143.23 5.69324 141.534 5.94418 139.91 6.46556C138.549 6.9059 137.265 7.5628 136.107 8.41169C135.067 9.17587 134.153 10.1036 133.401 11.1598C132.704 12.1316 132.136 13.1924 131.711 14.3148L126.758 12.0149Z" fill="black"/>
</svg>
