<svg width="473" height="336" viewBox="0 0 473 336" fill="none" xmlns="http://www.w3.org/2000/svg">
<path d="M119.01 0H472.852V324.385H119.01V0Z" fill="#C2B5FF"/>
<path d="M7.62939e-06 28.4344H92.6873V58.6352H7.62939e-06V28.4344Z" fill="black"/>
<path d="M12.9755 119.86H91.3326V151.07H12.9755V119.86Z" fill="#C2B5FF"/>
<path d="M7.6498 216.81H65.3021V248.02H7.6498V216.81Z" fill="black"/>
<path d="M316.775 191.47C316.775 191.47 321.769 174.312 327.745 172.399C333.722 170.487 330.853 185.255 330.853 185.255C330.853 185.255 342.221 165.4 349.752 169.916C357.282 174.431 345.024 206.172 345.024 206.172L316.775 191.47Z" fill="#FBDDC9"/>
<path d="M358.743 205.11L298.01 183.86L284.437 212.295C284.437 212.295 280.851 169.185 218.032 163.766L177.114 163.156C177.114 163.156 127.39 160.924 106.539 195.455C93.1655 217.607 78.0518 259.548 68.4498 291.077C62.3671 311.065 83.4173 352.899 129.183 328.649L270.199 324.279V309.112C270.199 309.112 306.058 334.532 325.182 305.766C344.307 276.999 358.743 205.11 358.743 205.11Z" fill="#FFEEB6"/>
<path d="M177.167 163.103L218.085 163.713C223.414 164.154 228.708 164.952 233.929 166.104C229.082 174.073 218.431 185.507 196.982 185.507C175.733 185.507 162.093 173.674 155.014 165.161C162.304 163.685 169.73 162.995 177.167 163.103Z" fill="#FBDDC9"/>
<path d="M219.52 96.9902C219.52 98.8946 220.084 100.756 221.142 102.34C222.2 103.923 223.704 105.157 225.464 105.886C227.223 106.615 229.159 106.805 231.027 106.434C232.894 106.062 234.61 105.145 235.957 103.799C237.303 102.452 238.22 100.736 238.592 98.8687C238.963 97.0009 238.773 95.0649 238.044 93.3055C237.315 91.5461 236.081 90.0423 234.498 88.9843C232.914 87.9263 231.053 87.3616 229.148 87.3616C226.595 87.3616 224.146 88.376 222.34 90.1817C220.534 91.9875 219.52 94.4365 219.52 96.9902Z" fill="#191919"/>
<path d="M162.452 96.8576C160.525 103.681 160.665 110.923 162.853 117.667C165.042 124.411 169.18 130.355 174.746 134.748C180.312 139.141 187.055 141.785 194.123 142.346C201.191 142.907 208.267 141.361 214.456 137.901C220.645 134.442 225.67 129.226 228.895 122.911C232.12 116.597 233.401 109.468 232.576 102.426C231.75 95.3837 228.856 88.7443 224.258 83.3469C219.66 77.9495 213.565 74.0363 206.744 72.1021C202.21 70.8165 197.467 70.4372 192.787 70.9858C188.106 71.5344 183.58 73.0001 179.466 75.2993C175.353 77.5984 171.733 80.6858 168.813 84.385C165.894 88.0841 163.732 92.3224 162.452 96.8576Z" fill="#191919"/>
<path d="M176.556 168.123L178.694 137.497C191.975 134.217 192.519 116.606 192.519 116.606C192.519 116.606 203.715 109.966 201.816 88.3311L222.468 84.0281C222.468 84.0281 231.114 91.1599 232.136 97.9996C232.588 101.067 233.053 104.64 233.464 108.903C235.138 126.168 240.105 148.015 217.992 150.685V166.728C217.992 166.728 215.867 172.04 199.519 173.369C183.17 174.697 176.556 168.123 176.556 168.123Z" fill="#FBDDC9"/>
<path d="M166.33 79.7385C166.881 79.742 167.432 79.7864 167.976 79.8713C166.826 76.5418 166.812 72.9252 167.935 69.5865C169.058 66.2479 171.255 63.3754 174.184 61.4179C177.113 59.4605 180.607 58.5285 184.121 58.7675C187.636 59.0065 190.972 60.4031 193.609 62.7389C194.649 60.4464 196.386 58.5408 198.573 57.2938C200.759 56.0468 203.284 55.5221 205.787 55.7944C208.289 56.0667 210.642 57.1223 212.509 58.8105C214.377 60.4987 215.664 62.7334 216.186 65.1959C218.752 64.0501 221.575 63.6031 224.37 63.9003C227.164 64.1975 229.83 65.2283 232.098 66.8882C234.365 68.548 236.154 70.778 237.281 73.3519C238.409 75.9258 238.836 78.7521 238.52 81.5443C238.203 84.3366 237.154 86.9954 235.478 89.2513C233.802 91.5072 231.56 93.2799 228.978 94.3896C226.396 95.4994 223.567 95.9068 220.777 95.5705C217.987 95.2343 215.336 94.1663 213.092 92.4748C212.381 95.311 210.656 97.7884 208.242 99.4383C205.828 101.088 202.893 101.796 199.992 101.428C197.092 101.06 194.427 99.6413 192.501 97.4408C190.576 95.2403 189.524 92.4104 189.545 89.4866C189.545 89.2874 189.545 89.1015 189.545 88.9023C185.952 90.5615 181.868 90.8173 178.097 89.6194C178.522 92.0347 178.193 94.5224 177.157 96.7448C176.12 98.9673 174.424 100.817 172.3 102.043C170.176 103.269 167.727 103.812 165.284 103.599C162.84 103.385 160.522 102.425 158.643 100.849C156.764 99.273 155.416 97.1571 154.78 94.7885C154.145 92.4198 154.253 89.913 155.091 87.6081C155.929 85.3032 157.455 83.3118 159.463 81.904C161.471 80.4962 163.864 79.7402 166.316 79.7385H166.33Z" fill="#191919"/>
<path d="M316.377 27.1063H414.191C422.34 27.1063 428.946 33.7124 428.946 41.8614V107.814C428.946 115.963 422.34 122.569 414.191 122.569H316.377C308.228 122.569 301.622 115.963 301.622 107.814V41.8614C301.622 33.7124 308.228 27.1063 316.377 27.1063Z" fill="#93FF43"/>
<path d="M394.15 92.2489C394.312 92.2498 394.474 92.2185 394.624 92.157C394.774 92.0955 394.911 92.0048 395.026 91.8903L409.144 77.7861C409.361 77.5429 409.48 77.2285 409.48 76.9029C409.48 76.5772 409.361 76.2629 409.144 76.0197L394.15 61.0787C394.034 60.9627 393.896 60.8706 393.745 60.8078C393.593 60.745 393.431 60.7126 393.267 60.7126C393.103 60.7126 392.94 60.745 392.789 60.8078C392.637 60.8706 392.499 60.9627 392.384 61.0787C392.167 61.3219 392.047 61.6362 392.047 61.9619C392.047 62.2876 392.167 62.6019 392.384 62.8451L406.488 76.9095L393.287 90.1904C393.114 90.3649 392.998 90.5863 392.95 90.8268C392.903 91.0674 392.928 91.3165 393.021 91.5431C393.115 91.7697 393.273 91.9637 393.476 92.1011C393.679 92.2384 393.918 92.3129 394.163 92.3153L394.15 92.2489Z" fill="#191919" stroke="black" stroke-width="2" stroke-miterlimit="10"/>
<path d="M337.241 92.249C337.572 92.2445 337.89 92.1166 338.131 91.8904C338.348 91.6472 338.467 91.3329 338.467 91.0072C338.467 90.6815 338.348 90.3672 338.131 90.124L324.053 76.0463L337.268 62.8451C337.384 62.7292 337.476 62.5915 337.539 62.4399C337.602 62.2884 337.634 62.126 337.634 61.9619C337.634 61.7979 337.602 61.6354 337.539 61.4839C337.476 61.3324 337.384 61.1947 337.268 61.0787C337.154 60.9615 337.018 60.8683 336.867 60.8046C336.717 60.7409 336.555 60.7081 336.391 60.7081C336.228 60.7081 336.066 60.7409 335.916 60.8046C335.765 60.8683 335.629 60.9615 335.515 61.0787L321.411 75.1698C321.194 75.413 321.074 75.7273 321.074 76.0529C321.074 76.3786 321.194 76.6929 321.411 76.9361L336.365 91.8638C336.478 91.9831 336.614 92.0786 336.764 92.1448C336.915 92.2109 337.077 92.2463 337.241 92.249Z" fill="#191919" stroke="black" stroke-width="2" stroke-miterlimit="10"/>
<path d="M375.557 99.3409C375.757 99.3249 375.951 99.2636 376.125 99.1615C376.298 99.0595 376.446 98.9194 376.557 98.7518C376.668 98.5843 376.74 98.3937 376.767 98.1943C376.794 97.995 376.775 97.7922 376.712 97.6012L356.1 49.365C355.97 49.0603 355.724 48.8199 355.416 48.6966C355.109 48.5733 354.765 48.5773 354.46 48.7076C354.155 48.8379 353.915 49.084 353.791 49.3916C353.668 49.6992 353.672 50.0431 353.802 50.3478L374.454 98.5972C374.556 98.8071 374.712 98.9864 374.906 99.117C375.099 99.2475 375.324 99.3248 375.557 99.3409Z" fill="#191919" stroke="black" stroke-width="2" stroke-miterlimit="10"/>
<path d="M210.449 216.412H311.622C319.192 216.412 325.328 222.548 325.328 230.118V291.462C325.328 299.032 319.192 305.168 311.622 305.168H210.449C202.879 305.168 196.743 299.032 196.743 291.462V230.118C196.743 222.548 202.879 216.412 210.449 216.412Z" fill="#F5F5FA"/>
<path d="M261.036 274.649C263.778 274.651 266.46 273.84 268.742 272.318C271.024 270.796 272.803 268.632 273.855 266.099C274.906 263.565 275.183 260.777 274.649 258.086C274.116 255.396 272.796 252.924 270.858 250.984C268.919 249.043 266.449 247.722 263.759 247.185C261.069 246.649 258.28 246.923 255.746 247.972C253.212 249.021 251.045 250.798 249.521 253.079C247.997 255.359 247.184 258.04 247.184 260.783C247.187 264.457 248.647 267.98 251.244 270.579C253.84 273.178 257.362 274.642 261.036 274.649ZM261.036 249.415C263.285 249.415 265.483 250.082 267.353 251.332C269.223 252.582 270.68 254.358 271.54 256.436C272.4 258.514 272.624 260.8 272.185 263.006C271.745 265.212 270.661 267.237 269.07 268.827C267.478 270.416 265.451 271.498 263.245 271.935C261.039 272.372 258.753 272.145 256.676 271.283C254.599 270.42 252.824 268.961 251.577 267.09C250.329 265.218 249.665 263.019 249.667 260.77C249.674 257.76 250.875 254.875 253.006 252.749C255.137 250.622 258.025 249.428 261.036 249.428V249.415Z" fill="#191919" stroke="black" stroke-width="0.5" stroke-miterlimit="10"/>
<path d="M175.015 252.124C175.015 252.124 188.881 240.835 194.937 242.668C200.993 244.501 190.182 255.006 190.182 255.006C190.182 255.006 210.821 245.125 214.446 253.12C218.072 261.115 189.97 280.266 189.97 280.266L175.015 252.124Z" fill="#FBDDC9"/>
<path d="M162.106 84.1078C162.106 84.1078 193.077 90.5358 215.376 66.9622C215.376 66.9622 181.882 20.3065 176.29 15.6582C170.699 11.0099 162.106 84.1078 162.106 84.1078Z" fill="#5FAE2D"/>
<path d="M221.432 58.4625C214.101 47.8378 206.464 55.3016 198.655 63.1241C190.846 70.9465 183.781 78.1846 163.275 74.8378C163.275 74.8378 152.252 77.3611 154.789 86.7906C157.325 96.22 178.694 96.6051 187.433 93.9755C206.332 88.2116 228.524 68.7817 221.432 58.4625Z" fill="white"/>
</svg>
