<svg width="132" height="39" viewBox="0 0 132 39" fill="none" xmlns="http://www.w3.org/2000/svg">
<path d="M65.4042 17.7869H82.5416V20.3071H75.3105V38.5398H72.611V20.3071H65.4042V17.7869Z" fill="#191919"/>
<path d="M81.4172 30.7999C81.3872 29.739 81.5736 28.6831 81.965 27.6966C82.3564 26.71 82.9446 25.8135 83.6937 25.0617C84.4429 24.3098 85.3372 23.7184 86.3223 23.3234C87.3074 22.9285 88.3626 22.7382 89.4237 22.7643C93.9891 22.7643 97.1345 25.8516 97.1345 30.3589C97.1345 30.7999 97.1006 31.3282 97.0715 31.6917H83.9858C84.1361 34.4494 86.4091 36.4655 89.4431 36.4655C91.6967 36.4655 93.1167 35.6658 94.2896 33.766L96.5432 34.5996C95.2977 37.3234 92.8356 38.8064 89.4285 38.8064C84.708 38.8064 81.4172 35.5059 81.4172 30.7999ZM84.0876 29.3459H94.5901C94.5028 27.0002 92.2201 25.1052 89.4334 25.1052C86.6466 25.1052 84.4123 26.8597 84.0876 29.3508V29.3459Z" fill="#191919"/>
<path d="M114.185 34.5996C112.939 37.3234 110.477 38.8064 107.186 38.8064C102.442 38.8064 99.0295 35.4575 99.0295 30.7999C99.0295 26.1424 102.422 22.8564 107.186 22.8564C110.506 22.8564 113.002 24.3686 114.243 27.0681L111.989 27.8969C111.506 27.0564 110.804 26.3621 109.959 25.887C109.113 25.4118 108.156 25.1736 107.186 25.1973C103.925 25.1973 101.642 27.5091 101.642 30.7999C101.642 34.0907 103.925 36.4752 107.191 36.4752C108.156 36.5172 109.113 36.2861 109.952 35.8086C110.791 35.3311 111.479 34.6265 111.936 33.7757L114.185 34.5996Z" fill="#191919"/>
<path d="M117.238 16.895H119.729V25.4928C120.674 23.8062 122.458 22.8563 124.74 22.8563C128.947 22.8563 131.23 24.9888 131.23 29.8547V38.5397H128.744V30.0922C128.744 26.7384 127.319 25.1972 124.266 25.1972C121.745 25.1972 119.729 26.7384 119.729 29.7626V38.5397H117.238V16.895Z" fill="#191919"/>
<path d="M36.4703 38.5397L32.1714 31.3959L27.9598 38.5397H22.9193L29.3943 27.7756L22.7933 17.782H28.0615L32.2926 24.4557L36.3249 17.782H41.3653L34.8709 28.1051L41.5398 38.5397H36.4703Z" fill="#191919"/>
<path d="M57.9308 31.4832C57.9308 36.0535 54.4897 38.8984 49.9825 38.8984C46.0083 38.8984 42.6642 36.7029 42.3346 31.9291H46.6383C46.934 34.0034 48.577 34.8952 50.4041 34.8952C52.6577 34.8952 53.6271 33.3831 53.6271 31.4251C53.6271 29.3798 52.1149 28.1052 50.0115 28.1052C49.3378 28.0677 48.6661 28.2068 48.0626 28.5085C47.4591 28.8103 46.9448 29.2643 46.5705 29.8257H42.4606L43.8806 17.7869H57.3977L56.9469 21.8192H47.2538L46.871 25.8031C46.871 25.8031 47.8839 24.606 50.9663 24.606C54.6981 24.606 57.9308 27.0971 57.9308 31.4832Z" fill="#191919"/>
<path d="M42.8435 15.1988C40.5559 6.27143 33.2861 0 18.2085 0H0L2.47174 16.7109C4.33281 31.7885 10.1002 36.6399 20.307 38.4283C20.3543 38.4416 20.4041 38.443 20.452 38.4322C20.4999 38.4215 20.5444 38.399 20.5814 38.3668C20.6184 38.3346 20.6468 38.2936 20.6641 38.2477C20.6814 38.2017 20.6869 38.1522 20.6802 38.1036C20.6797 38.0384 20.6602 37.9747 20.6241 37.9205C20.5879 37.8662 20.5367 37.8237 20.4767 37.7982C13.58 34.8903 12.79 25.3668 11.3167 15.8094L10.1778 8.19067H20.5736C30.1552 8.19067 37.5365 8.04042 42.2377 15.4605C42.2684 15.5148 42.3127 15.5603 42.3662 15.5926C42.4197 15.6248 42.4806 15.6428 42.543 15.6447C42.5854 15.644 42.6273 15.635 42.6662 15.618C42.7051 15.601 42.7402 15.5765 42.7695 15.5458C42.7988 15.5152 42.8218 15.479 42.837 15.4394C42.8521 15.3997 42.8593 15.3575 42.858 15.3151C42.8614 15.2757 42.8564 15.2361 42.8435 15.1988Z" fill="#191919"/>
</svg>
